<?xml version="1.0" encoding="utf-8"?>
<!-- Generator: Adobe Illustrator 26.5.0, SVG Export Plug-In . SVG Version: 6.00 Build 0)  -->
<svg version="1.1" id="Layer_1" xmlns="http://www.w3.org/2000/svg" xmlns:xlink="http://www.w3.org/1999/xlink" x="0px" y="0px"
	 viewBox="0 0 211.4 268.4" style="enable-background:new 0 0 211.4 268.4;" xml:space="preserve">
<style type="text/css">
	.st0{fill:#FFFFFF;}
</style>
<path class="st0" d="M204.9,154.9L204.9,154.9c-2.3-4.3-5.2-8.4-8.6-12.1c-1.7-1.9-3.5-3.6-5.4-5.3c-1-0.8-1.9-1.6-2.9-2.4l-0.4-0.4
	h0c-0.9-0.7-1.8-1.3-2.6-1.9l-0.4-0.3h0c-4.8-3.2-10.1-5.8-15.7-7.8c-0.1,0-0.2-0.1-0.3-0.1c-0.8-0.3-1.5-0.5-2.2-0.7l0,0l0,0
	c-0.9-0.3-1.8-0.5-2.6-0.7l-81.6-22.8l-0.2-0.1h-0.2h0h-0.3l-26.7-7.4l0-0.1l-1.7-0.5l-17.8-5V59.6h109.6c5.2,0,10.3,1.1,14.9,3.3
	l0.7-1.5l-0.7,1.5c4.6,2.2,8.5,5.3,11.4,9.1c2.9,3.8,4.7,8.2,5.3,12.7c0.6,4.5-0.1,9.2-2,13.4l-0.1,0.3v0.3v0v1.2l1.2,0.3l30.3,8.5
	l0.2,0.1h0.2h0h1.1l0.4-1c3.3-8.3,4.5-17.2,3.5-26c-1-8.8-4.1-17.3-9.2-24.8l-0.5-0.7h0c-5.3-7.6-12.4-14.1-20.9-18.9
	c-8.3-4.7-17.6-7.8-27.4-8.9V1.6V0h-1.6h-31.7h-1.6v1.6V28H87.8V1.6V0h-1.6H54.4h-1.6v1.6V28H1.6H0v1.6v79.8v1.2l1.2,0.3l31.7,8.9
	l0,0l68,19h0l53.1,14.8l0,0l0.2,0.1c0.7,0.2,1.4,0.4,2,0.6c0,0,0,0,0.1,0c0.1,0,0.1,0,0.2,0.1l0.1,0h0l0.5,0.1l0,0l1.4,0.6
	c6.5,2.8,11.7,7.5,14.8,13.2c3.1,5.7,3.9,12.2,2.3,18.4l1.5,0.4l-1.5-0.4c-1.6,6.2-5.5,11.8-11.1,15.8c-5.6,4-12.6,6.2-19.9,6.2H35
	V148v-1.2l-1.2-0.3l-31.7-8.8L0,137v2.1v99.6v1.6h1.6h51.2v26.4v1.6h1.6h31.7h1.6v-1.6v-26.4h30.4v26.4v1.6h1.6h31.7h1.6v-1.6v-26.9
	c10-1.2,19.7-4.4,28.1-9.4c8.9-5.2,16.3-12.3,21.5-20.7c5.2-8.3,8.2-17.7,8.5-27.3C211.7,173.1,209.5,163.6,204.9,154.9z"/>
</svg>
